Patient4_TMGait_0pt4_02_left_24_EMG.mot
version=1
nRows=33
nColumns=33
inDegrees=no
endheader
time	1LAddLong	2LGlutMax	3LGlutMed	4LIliopsoas	5LSemiMemb	6LBicFemLong	7LRecFem	8LVastMed	9LVastLat	10LGasMed	11LTibAnt	12lTibPost	13LPeroneusLong	14LSol	15LExtDigLong	16LFlexDigLong	17RAddLong	18RGlutMax	19RGlutMed	20RIliopsoas	21RSemiMemb	22RBicFemLong	23RRecFem	24RVastMed	25RVastLat	26RGasMed	27RTibAnt	28RTibPost	29RPeroneusLong	30RSol	31RExtDigLong	32RFlexDigLong
33.668	0.05661	0.13779	-0.03952	0.010376	0.044861	-0.10757	-0.038147	0.001221	0.10284	-0.043945	0.033417	0.000153	-0.023804	-0.027008	0.39444	-0.01709	0.011292	-0.003052	-0.64362	-0.10132	0.001068	-0.018768	-0.63141	-0.31662	-0.075378	0.005951	0.18372	-0.013733	0.41733	-0.39459	-0.001526	-0.002441
33.669	0.012207	0.13947	-0.077515	0.00473	0.044708	-0.11765	-0.049591	-0.004578	0.080566	-0.049133	-0.016174	0.004578	-0.000458	-0.010529	0.55313	-0.014343	0.019073	0.014954	-0.18204	-0.16022	-0.008392	-0.025635	-0.63217	0.2153	-0.12497	-0.005341	-0.40741	-0.009308	0.30106	-0.3183	-0.00412	-0.014343
33.67	0.003815	0.15274	0.000305	-0.016632	0.027924	-0.10529	-0.059814	-0.004883	0.063629	-0.060883	0.019379	0.00473	-0.015259	-0.05127	-0.46585	-0.015259	0.012665	0.02594	0.45975	-0.056	0.006409	-0.023956	-0.37155	0.30731	-0.64819	-0.014191	-0.57251	-0.014191	0.1857	-0.054321	-0.000153	-0.004272
33.671	0.001373	0.15137	0.010071	0.00885	0.012054	-0.066833	-0.056152	-0.006561	0.033417	-0.049438	-0.033417	0.00061	-0.009155	-0.060577	-0.060883	-0.02243	0.006714	-0.027313	0.26382	0.093842	0.018768	0.02121	0.08667	-0.20279	-0.83801	-0.010376	-1.7032	-0.015259	0.16937	-0.17975	-0.003204	-0.016174
33.672	0.00351	0.13046	-0.07431	-0.007477	0.013428	-0.040131	-0.043793	-0.000458	0.021973	-0.047913	-0.086823	0.005035	-0.026245	-0.035248	-0.25604	-0.024261	0.030823	-0.06546	0.40176	0.15152	0.003967	0.00473	0.30777	-0.43396	-0.65292	-0.012512	-1.2439	-0.007782	0.18051	-0.31448	0.002441	-0.018158
33.673	0.003052	0.12161	-0.072021	-0.009613	-0.000763	0.007629	-0.046082	-0.002289	0.009613	-0.040131	-0.067444	0.000763	-0.0177	-0.065308	-0.2565	-0.00946	0.030365	-0.045776	0.067291	0.13001	-0.003204	-0.021973	0.26077	-0.64331	-0.43991	-0.00946	-0.060425	-0.007477	0.21469	-0.18417	-0.002441	-0.011749
33.674	0.015259	0.12482	-0.084076	0.006104	-0.006104	0.021515	-0.06424	0.009613	0.00412	-0.048523	-0.031128	0.00351	0.005798	-0.083923	-0.25406	-0.012054	0.017548	-0.008698	-0.40359	0.10391	-0.003967	-0.016632	-0.22186	-0.56412	-0.11047	-0.007172	1.4116	-0.009613	0.078583	-0.17258	-0.006104	-0.00946
33.675	0.006561	0.11276	-0.096741	0.008545	-0.011902	0.046539	-0.084686	0.009155	0.006866	-0.066071	0.0177	0.001678	0.014954	-0.052185	-0.1265	0.008545	0.005188	-0.04364	-0.5777	0.028992	0.003052	0.007019	-0.68878	-0.41946	-0.016785	0.001221	1.6269	-0.005951	-0.033875	-0.14038	-0.00351	-0.011139
33.676	0.003052	0.11154	-0.041962	0.005646	-0.00473	0.068359	-0.068207	0.018921	-0.010529	-0.06134	0.017242	-0.001221	-0.009155	-0.076447	-0.001831	-0.002441	-0.001068	-0.089417	-0.87921	-0.02243	0.010681	0.027313	-1.0101	-0.14481	-0.13901	-0.000458	-0.87616	-0.005188	-0.051575	-0.12192	-0.002289	-0.011597
33.677	0.002289	0.072784	0.012817	0.020599	0.03006	0.077209	-0.093384	0.001831	-0.0177	-0.056152	-0.010681	0.00351	0.019226	-0.088043	0.073547	-0.007782	0.009613	-0.17716	-0.79315	-0.019989	0.013275	0.018768	-0.67246	0.11505	0.03067	0.009918	-2.1165	-0.000305	0.17456	-0.15747	-0.00351	-0.01358
33.678	0.003967	0.050201	-0.086823	0.027008	0.022278	0.07782	-0.098724	0.007935	-0.009613	-0.03891	-0.062256	0.000305	0.017395	-0.085754	0.064087	-0.002747	0.003052	-0.16251	-0.50995	-0.10712	0.013885	0.006409	-0.077515	0.1712	-0.015869	0.000458	-0.45929	-0.005951	-0.052032	-0.069122	-0.008698	-0.011597
33.679	0.00473	0.026398	0.024261	0.011749	-0.015259	0.041504	-0.092926	0.006866	-0.016479	-0.035095	-0.018158	-0.000153	0.016022	-0.093384	0.092163	-0.007019	0.015411	-0.14633	-0.13672	-0.1831	0.011139	0.041199	0.38269	0.10651	-0.055847	-0.009155	0.9967	-0.004578	-0.29663	-0.069733	0.000763	-0.014038
33.68	0.013123	0.025787	0.071869	-0.00412	-0.019226	0.031128	-0.09964	0.008698	-0.00473	-0.033569	-0.011292	0.001221	-0.006104	-0.11414	0.079346	0.002136	0.016632	-0.19409	-0.15671	-0.19745	0.011749	0.019073	0.28137	-0.19028	-0.07843	-0.010834	0.73807	-0.013275	-0.31799	0.15915	-0.010071	-0.016479
33.681	0.017853	0.025635	0.14557	-0.011902	-0.00473	0.029755	-0.10101	0.007019	-0.010681	-0.038757	0.02655	0.001221	-0.030975	-0.10147	0.066223	-0.000305	0.00824	-0.15823	-0.33661	-0.046387	0.006561	0.011444	0.12665	-0.20676	0.33402	-0.005798	-0.070648	-0.009308	-0.1413	0.25559	-0.009155	-0.010529
33.682	0.010071	-0.004425	0.079956	-0.007477	-0.002747	0.046692	-0.12421	0.010681	-0.010681	-0.038147	0.027313	-0.00061	-0.033264	-0.058289	0.063629	-0.003357	0.008545	-0.1207	-0.1918	0.14389	0.035248	0.04776	0.049133	0.056458	0.46097	-0.013885	-0.32028	-0.004425	-0.041809	0.41306	-0.004883	-0.010376
33.683	0.012817	0.047302	-0.001068	-0.00885	-0.006714	0.0354	-0.1178	0.007172	-0.016174	-0.04364	-0.004272	-0.001068	-0.006256	-0.050507	0.20477	0.00885	-0.005035	-0.12253	-0.2861	0.11185	0.026093	0.050354	-0.041809	0.019836	0.5513	-0.010681	-0.63248	-0.009308	0.11902	0.36011	-0.00061	-0.012512
33.684	0.01297	0.015869	0.011292	0.001984	-0.010223	0.039825	-0.15488	0.015411	-0.019684	-0.054626	-0.004425	-0.010223	-0.002899	-0.054321	0.17075	0.00473	-0.020142	-0.091095	-0.3125	0.076141	0.034943	0.06546	0.075073	0.29526	0.6781	-0.019379	-0.11719	-0.009918	-0.021057	0.51178	0.000305	-0.007019
33.685	0.014496	0.054321	0.079193	0.01297	0.001678	0.039825	-0.13138	0.009613	-0.002441	-0.068359	-0.014343	0.000458	0.023499	-0.046234	0.063629	-0.000916	-0.010681	-0.086975	-0.32257	0.005188	0.032349	0.068512	0.35049	0.60242	0.36575	-0.024414	-0.024719	-0.002747	-0.057526	0.48981	-0.00473	-0.009766
33.686	0.010071	0.031433	0.030975	0.015564	-0.014191	0.018311	-0.13565	0.010986	-0.012817	-0.06958	-0.060425	-0.01236	0.021362	-0.031433	0.14343	0.00473	-0.015564	-0.080719	-0.4129	0.057831	0.038757	0.077057	0.48309	0.93597	-0.05722	-0.01297	0.12436	-0.002289	-0.058441	0.26443	-0.003204	-0.011902
33.687	0.007172	0.009613	0.01236	0.014648	0.029755	0.054779	-0.12421	0.010986	-0.011444	-0.057831	-0.084686	-0.006561	-0.031738	-0.017853	0.1149	0.009155	-0.004425	-0.11231	-0.065155	-0.042877	0.033112	0.052032	0.28641	0.80643	-0.49728	-0.015411	1.2045	-0.003662	-0.12589	0.15289	-0.000916	-0.018921
33.688	-0.006866	0.036469	0.020294	0.002594	0.039368	0.081024	-0.11795	0.012665	-0.01358	-0.051727	-0.039368	-0.010529	-0.063629	-0.018616	-0.1593	0.007629	0.02655	-0.067902	-0.14084	-0.024414	0.004425	0.023346	0.31036	0.61569	-0.70984	-0.011444	1.207	-0.004425	-0.16724	0.10956	0.002289	-0.014191
33.689	-0.013123	0.034637	0.00473	-0.009308	-0.028381	0.079651	-0.12283	0.013123	-0.002899	-0.050964	-0.027008	-0.00473	-0.030518	-0.023651	-0.33844	0.007324	0.034332	-0.056305	0.037537	-0.054779	-0.003052	0.006561	0.44037	0.36926	-0.25864	-0.012512	-0.085602	-0.004578	-0.028534	0.028839	-0.005798	-0.011139
33.69	-0.016937	0.029449	-0.014343	0.001831	-0.11932	-0.015717	-0.14816	0.012207	-0.006409	-0.059357	0.041656	-0.019379	0.026855	-0.099182	-0.31464	0.019531	0.015411	-0.084076	-0.61935	-0.045166	0.007935	0.019989	0.35019	-0.049591	-0.019989	-0.014343	-0.67383	-0.004883	-0.026093	0.080566	-0.000916	-0.016174
33.691	0.005951	0.021362	-0.039673	0.02655	-0.051422	-0.12238	-0.15762	0.010071	0.006714	-0.043793	0.13275	-0.015106	-0.010834	-0.13886	-0.058289	0.011292	0.012207	-0.12344	-0.50522	-0.083313	-0.000763	0.032959	0.25909	-0.64896	-0.1683	-0.011292	0.088806	-0.001068	-0.11261	0.023956	-0.001984	-0.025482
33.692	0.025024	-0.000763	-0.057678	0.018921	0.044861	-0.18204	-0.1683	0.002747	0.002594	-0.052185	0.16754	-0.009613	-0.039825	-0.17517	0.21683	0.003357	0.000458	-0.14633	-0.39917	-0.052643	0.006714	0.066528	0.011749	-0.73593	-0.17548	-0.016632	0.61279	-0.003967	-0.19821	0.000153	0.001373	-0.010681
33.693	0.038605	-0.001373	-0.050812	0.014191	0.090942	-0.079346	-0.15457	-0.005035	-0.007172	-0.064545	0.18448	-0.005646	-0.062408	-0.11307	0.076599	0.010834	-0.005341	-0.1181	-0.85113	-0.009003	0.023804	0.070801	-0.11704	-0.54001	-0.085144	-0.014496	0.49423	-0.001984	-0.15549	-0.045776	0.000916	-0.021667
33.694	0.036926	0.000305	-0.11475	0.003204	0.071869	0.044861	-0.15427	0.000458	-0.014648	-0.075073	0.14328	-0.013885	-0.057678	-0.10346	0.028381	0.028687	-0.021057	-0.023041	-1.3843	0.077667	0.016327	0.048218	-0.45609	-0.16846	-0.10574	-0.002747	-0.50476	0.007019	0.16907	-0.13489	0.00351	-0.019836
33.695	0.029297	0.023346	-0.16113	-0.002747	0.043335	0.06073	-0.13565	0.000305	-0.014648	-0.074005	0.08606	-0.016479	-0.036926	-0.00473	0.000153	-0.001526	0.002899	-0.090637	-1.0167	0.14099	0.019836	0.048523	-0.83115	0.13733	-0.16464	-0.009003	-0.54947	-0.000153	0.044403	-0.16251	-0.003052	-0.00946
33.696	0.02243	0.005493	-0.15289	0.016174	0.042267	0.037231	-0.16708	0.001678	-0.013428	-0.063782	-0.062561	-0.01709	-0.00412	-0.035553	-0.028076	0.00885	-0.005188	-0.062866	0.39368	0.007782	0.026093	0.063629	-0.81085	0.13016	-0.32547	-0.012665	-0.094299	-0.003052	-0.14938	-0.13809	0.000305	-0.01709
33.697	0.020447	0.028076	-0.02655	0.010681	0.041809	0.045471	-0.13489	0.003357	-0.028076	-0.06134	-0.095978	-0.013123	0.019684	-0.012207	-0.015259	-0.005493	-0.009003	-0.082703	0.84518	-0.041809	0.028229	0.048523	-0.4068	0.064087	0.037079	-0.005493	-0.087585	-0.000763	-0.18234	-0.2179	-0.003662	-0.00946
33.698	0.021057	0.045166	0.054626	0.011902	0.029297	0.035706	-0.15243	0.008392	-0.03418	-0.066376	-0.04364	-0.020142	-0.008087	-0.03479	0.00061	-0.000153	-0.000305	-0.059204	1.2354	-0.061035	0.026855	0.046844	-0.20065	-0.014954	0.18967	0.007019	0.78781	-0.002136	-0.2182	-0.36423	-0.003815	0.002747
33.699	0.01709	0.043793	0.000916	0.00351	0.018311	0.033875	-0.16403	0.012512	-0.023651	-0.04303	-0.03891	-0.016022	-0.007935	-0.049744	-0.006561	0.002899	0.003204	-0.16098	0.43671	-0.054932	0.011749	0.023193	-0.18158	-0.097198	0.19623	0.00351	0.51407	-0.00473	-0.22568	-0.41443	0.004578	0.006714
33.7	0.01709	0.049591	-0.089722	-0.014954	0.002594	0.046844	-0.17212	0.007935	-0.030975	-0.048981	-0.022888	-0.016632	0.010071	-0.043488	0.004578	0.005188	0.006714	-0.18967	-0.21255	0.045929	0.010071	0.016022	-0.10284	-0.1001	0.12833	-0.00473	-0.18601	-0.003662	-0.14923	-0.31479	-0.005188	-0.009155
